<?xml version="1.0" encoding="utf-8"?>
<!-- Generator: Adobe Illustrator 26.4.1, SVG Export Plug-In . SVG Version: 6.00 Build 0)  -->
<svg version="1.1" id="Capa_1" xmlns="http://www.w3.org/2000/svg" xmlns:xlink="http://www.w3.org/1999/xlink" x="0px" y="0px"
	 viewBox="0 0 101.5 100" style="enable-background:new 0 0 101.5 100;" xml:space="preserve">
<style type="text/css">
	.st0{fill:#FFFFFF;}
</style>
<path class="st0" d="M33.1,32.3L33.1,32.3c-9.8,9.8-9.8,25.6,0,35.4l0,0c9.8,9.8,25.6,9.8,35.4,0l0,0c9.8-9.8,9.8-25.6,0-35.4l0,0
	C58.7,22.6,42.8,22.6,33.1,32.3z M59.6,41.2c0.4,0.4,0.6,0.9,0.6,1.4v11.6c0,1.1-0.9,2-2,2s-2-0.9-2-2v-6.8L44.8,58.9
	c-0.8,0.8-2.1,0.8-2.8,0s-0.8-2.1,0-2.8l11.4-11.4h-6.9c-1.1,0-2-0.9-2-2s0.9-2,2-2h11.6C58.7,40.5,59.2,40.7,59.6,41.2L59.6,41.2z"
	/>
</svg>
