<?xml version="1.0" encoding="utf-8"?>
<!-- Generator: Adobe Illustrator 26.4.1, SVG Export Plug-In . SVG Version: 6.00 Build 0)  -->
<svg version="1.1" id="Capa_1" xmlns="http://www.w3.org/2000/svg" xmlns:xlink="http://www.w3.org/1999/xlink" x="0px" y="0px"
	 viewBox="0 0 100 50" style="enable-background:new 0 0 100 50;" xml:space="preserve">
<style type="text/css">
	.st0{fill:#FFFFFF;}
	.st1{fill:#6BCDB2;}
	.st2{display:none;}
</style>
<g>
	<path class="st0" d="M33.2,22.53V11.46H22.13V0.39H11.07v11.07h11.07v11.07L11.07,33.59v1.35c0,2.18,0.19,4.05,0.58,5.61
		s0.91,2.88,1.56,3.97s1.42,1.97,2.29,2.63c0.87,0.67,1.79,1.18,2.76,1.54s1.95,0.6,2.96,0.73c1,0.12,1.97,0.18,2.88,0.18h9.11
		V38.53h-6.72c-0.58,0-1.13-0.04-1.65-0.21s-0.97-0.45-1.36-0.83c-0.39-0.39-0.69-0.89-0.91-1.52s-0.44-1.4-0.44-2.32V22.52
		L33.2,22.53z"/>
	<polygon class="st1" points="22.13,11.46 22.13,22.53 11.07,33.59 11.07,22.53 0,22.52 11.07,11.46 	"/>
	<g>
		<g>
			<path class="st0" d="M74.13,30.26c0,0.58-0.02,1.07-0.05,1.49c-0.03,0.42-0.09,1.45-0.16,2.01H47.49c0.44,2.4,1.37,3.65,2.8,4.86
				s3.18,1.82,5.26,1.82c1.87,0,3.3-0.35,4.31-1.06c1-0.7,1.7-1.3,2.09-2.33h11.42c-0.39,1.59-1.08,2.88-2.06,4.41
				c-0.98,1.53-2.23,2.91-3.74,4.12c-1.51,1.21-3.26,2.19-5.24,2.92c-1.98,0.74-4.18,1.11-6.57,1.11c-2.79,0-5.35-0.5-7.66-1.51
				c-2.32-1-4.31-2.37-5.99-4.1c-1.67-1.73-2.97-3.75-3.89-6.07s-1.38-4.78-1.38-7.39s0.46-5.07,1.38-7.39
				c0.92-2.32,2.21-4.34,3.88-6.07s3.66-3.1,5.99-4.1s4.89-1.51,7.68-1.51c2.81,0,5.35,0.5,7.61,1.51c2.26,1,4.19,2.36,5.78,4.07
				s2.82,3.7,3.69,5.97S74.13,27.7,74.13,30.26z M63.23,26.01c-0.09-0.83-0.35-1.6-0.78-2.3c-0.43-0.7-0.97-1.31-1.64-1.83
				s-1.43-0.92-2.28-1.21c-0.85-0.29-1.76-0.43-2.73-0.43c-0.83,0-1.64,0.1-2.44,0.31s-1.55,0.55-2.25,1.02
				c-0.7,0.47-1.33,1.07-1.89,1.8s-0.99,1.61-1.31,2.65h15.32V26.01z"/>
			<path class="st0" d="M77.71,11.48H88.9v5.39c0.85-1.59,1.86-2.91,3.31-3.9s3.28-1.49,5.5-1.49h2.3V22.5h-1.68
				c-2.85,0-5.07,0.93-6.66,2.8c-1.59,1.86-2.76,3.16-2.76,6.71v17.58H77.72L77.71,11.48L77.71,11.48z"/>
		</g>
	</g>
</g>
<g id="Capa_2_00000039128583406000718910000001601726763164420999_" class="st2">
</g>
</svg>
