<?xml version="1.0" encoding="utf-8"?>
<!-- Generator: Adobe Illustrator 26.4.1, SVG Export Plug-In . SVG Version: 6.00 Build 0)  -->
<svg version="1.1" id="svg6924" xmlns:svg="http://www.w3.org/2000/svg"
	 xmlns="http://www.w3.org/2000/svg" xmlns:xlink="http://www.w3.org/1999/xlink" x="0px" y="0px" viewBox="0 0 400 400"
	 style="enable-background:new 0 0 400 400;" xml:space="preserve">
<style type="text/css">
	.st0{fill:#00B1E6;}
	.st1{fill:#FFFFFF;filter:url(#Adobe_OpacityMaskFilter);}
	.st2{mask:url(#custom_00000041259980504015827650000015681364800171009156_);}
</style>
<g>
	<g id="g447">
		<g>
			<g>
				<g id="g449_00000000916374395704619380000014202576571400785082_">
					<g id="g455_00000173122606865202064620000003552817768054349452_" transform="translate(492,256)">
						<g id="path457_00000095332592818029611980000015368150166581255864_">
							<path class="st0" d="M-292,103.7c-21.6,0-42.5-4.2-62.2-12.6c-19-8-36.1-19.6-50.8-34.2c-14.7-14.7-26.2-31.7-34.2-50.8
								c-8.3-19.7-12.6-40.6-12.6-62.2c0-21.6,4.2-42.5,12.6-62.2c8-19,19.6-36.1,34.2-50.8c14.7-14.7,31.7-26.2,50.8-34.2
								c19.7-8.3,40.6-12.6,62.2-12.6c21.6,0,42.5,4.2,62.2,12.6c19,8,36.1,19.6,50.8,34.2s26.2,31.7,34.2,50.8
								c8.3,19.7,12.6,40.6,12.6,62.2c0,21.6-4.2,42.5-12.6,62.2c-8,19-19.6,36.1-34.2,50.8s-31.7,26.2-50.8,34.2
								C-249.5,99.5-270.4,103.7-292,103.7z M-292-190.7c-36,0-69.8,14-95.3,39.5S-426.7-92-426.7-56c0,36,14,69.8,39.5,95.3
								c25.5,25.4,59.3,39.5,95.3,39.5s69.8-14,95.3-39.5c25.5-25.5,39.5-59.3,39.5-95.3c0-36-14-69.8-39.5-95.3
								C-222.2-176.7-256-190.7-292-190.7z"/>
						</g>
					</g>
				</g>
			</g>
		</g>
	</g>
	<defs>
		<filter id="Adobe_OpacityMaskFilter" filterUnits="userSpaceOnUse" x="125.8" y="145.7" width="148.5" height="108.7">
			<feColorMatrix  type="matrix" values="1 0 0 0 0  0 1 0 0 0  0 0 1 0 0  0 0 0 1 0"/>
		</filter>
	</defs>
	
		<mask maskUnits="userSpaceOnUse" x="125.8" y="145.7" width="148.5" height="108.7" id="custom_00000041259980504015827650000015681364800171009156_">
		<rect id="bg_00000004541054895942409570000017669005040420253595_" x="40.3" y="40.3" class="st1" width="319.4" height="319.4"/>
		<g transform="matrix(1.3333333,0,0,-1.3333333,0,682.66667)">
		</g>
	</mask>
	<g class="st2">
		<g>
			<g id="g441_00000089576117114201393160000011733054538814763661_" transform="matrix(1.3333333,0,0,-1.3333333,0,682.66667)">
				<g id="g443_00000074432331161282085610000005606502703765390483_" transform="translate(355.0234,323.0869)">
					<g id="path445_00000173855128757871383480000015480652224844119453_">
						<path class="st0" d="M-221.5-1.8c-2.4,0-4.8,0.9-6.6,2.7L-258,30.8c-3.7,3.7-3.7,9.6,0,13.2c3.7,3.7,9.6,3.7,13.2,0l23.3-23.3
							l56.2,56.2c3.7,3.7,9.6,3.7,13.2,0c3.7-3.7,3.7-9.6,0-13.2l-62.8-62.8C-216.7-0.9-219.1-1.8-221.5-1.8z"/>
					</g>
				</g>
			</g>
		</g>
	</g>
</g>
</svg>
