<?xml version="1.0" encoding="utf-8"?>
<!-- Generator: Adobe Illustrator 26.4.1, SVG Export Plug-In . SVG Version: 6.00 Build 0)  -->
<svg version="1.1" id="Capa_1" xmlns="http://www.w3.org/2000/svg" xmlns:xlink="http://www.w3.org/1999/xlink" x="0px" y="0px"
	 viewBox="0 0 100 100" style="enable-background:new 0 0 100 100;" xml:space="preserve">
<style type="text/css">
	.st0{fill:#3C3C3B;}
</style>
<g>
	<path class="st0" d="M19.32,15.64C11.42,15.64,5,22.06,5,29.95c0,6.93,4.95,12.85,11.77,14.08l0.62,0.11V80.5H5v3.86h90V80.5h-8.07
		v-4.86h4.24V54.88h-3.98l-6.24-16.91H42.78l-6.24,16.91h-3.98v20.77h4.24v4.86H21.24V44.14l0.62-0.11
		c6.82-1.23,11.77-7.15,11.77-14.08C33.63,22.06,27.21,15.64,19.32,15.64z M48.49,80.51h-7.82v-4.86h7.82V80.51z M71.39,80.51H52.34
		v-4.86h19.05V80.51z M83.07,80.51h-7.83v-4.86h7.83V80.51z M45.47,41.82h32.8l4.81,13.06H40.65L45.47,41.82z M36.42,71.79V58.74
		h50.89V71.8H36.42V71.79z M19.32,40.41c-5.77,0-10.46-4.69-10.46-10.46s4.69-10.46,10.46-10.46s10.46,4.69,10.46,10.46
		S25.08,40.41,19.32,40.41z"/>
	<rect x="44.4" y="63.33" class="st0" width="5.27" height="3.86"/>
	<rect x="74.07" y="63.33" class="st0" width="5.27" height="3.86"/>
</g>
</svg>
