<?xml version="1.0" encoding="utf-8"?>
<!-- Generator: Adobe Illustrator 26.4.1, SVG Export Plug-In . SVG Version: 6.00 Build 0)  -->
<svg version="1.1" id="Capa_1" xmlns="http://www.w3.org/2000/svg" xmlns:xlink="http://www.w3.org/1999/xlink" x="0px" y="0px"
	 viewBox="0 0 100 100" style="enable-background:new 0 0 100 100;" xml:space="preserve">
<style type="text/css">
	.st0{fill:#3C3C3B;}
</style>
<g>
	<path class="st0" d="M75.35,40.35L40.16,5.01L5.01,40.3L8,43.28l5.89-5.91v31.92h52.53V37.37l5.93,5.96L75.35,40.35z M43.41,65.07
		H36.9V47.82h6.51C43.41,47.82,43.41,65.07,43.41,65.07z M62.2,65.07H47.64V43.6H32.68v21.47H18.11V33.13l22.04-22.14L62.2,33.13
		V65.07z"/>
	<polygon class="st0" points="92,58.65 88.79,61.88 88.79,13.11 92,16.34 94.99,13.37 86.68,5 78.32,13.36 81.31,16.34 84.57,13.09 
		84.57,61.9 81.31,58.65 78.32,61.63 86.68,69.99 94.99,61.62 	"/>
	<polygon class="st0" points="75.35,86.69 67,78.33 64.01,81.31 67.27,84.57 13.09,84.57 16.35,81.31 13.36,78.33 5.01,86.69 
		13.37,95 16.35,92 13.12,88.79 67.24,88.79 64.01,92 66.99,95 	"/>
</g>
</svg>
