<?xml version="1.0" encoding="utf-8"?>
<!-- Generator: Adobe Illustrator 26.4.1, SVG Export Plug-In . SVG Version: 6.00 Build 0)  -->
<svg version="1.1" id="Capa_1" xmlns="http://www.w3.org/2000/svg" xmlns:xlink="http://www.w3.org/1999/xlink" x="0px" y="0px"
	 viewBox="0 0 100 100" style="enable-background:new 0 0 100 100;" xml:space="preserve">
<style type="text/css">
	.st0{fill:#3C3C3B;}
</style>
<path class="st0" d="M95,85.03V14.97H5v70.06h14.88V74.38h60.24v10.65H95z M90.8,80.83h-6.48v-6.45h6.48V80.83z M9.2,19.17h81.6
	v26.67l-0.87-0.53c-1.52-0.93-3.27-1.46-5.06-1.53l-0.55-0.02V30.99H53.24v12.78h-6.48V30.99H15.68v12.76l-0.55,0.02
	c-1.79,0.07-3.54,0.6-5.07,1.53L9.2,45.83V19.17z M80.12,35.19v8.57H57.44v-8.57H80.12z M42.56,35.19v8.57H19.88v-8.57H42.56z
	 M9.2,54.32c0-3.5,2.85-6.35,6.35-6.35h68.9c3.5,0,6.35,2.85,6.35,6.35v4.43H9.2V54.32z M15.68,80.83H9.2v-6.45h6.48V80.83z
	 M9.2,70.18v-7.22h81.6v7.22H9.2z"/>
</svg>
