<?xml version="1.0" encoding="utf-8"?>
<!-- Generator: Adobe Illustrator 26.4.1, SVG Export Plug-In . SVG Version: 6.00 Build 0)  -->
<svg version="1.1" id="svg6924" xmlns:svg="http://www.w3.org/2000/svg"
	 xmlns="http://www.w3.org/2000/svg" xmlns:xlink="http://www.w3.org/1999/xlink" x="0px" y="0px" viewBox="0 0 400 400"
	 style="enable-background:new 0 0 400 400;" xml:space="preserve">
<style type="text/css">
	.st0{fill:#3C3C3B;}
</style>
<g>
	<path class="st0" d="M369.1,176.9c-0.8-3.1-4-4.9-7.1-4.1c-3.1,0.8-4.9,4-4.1,7.1c3.7,13.7,5.5,27.9,5.5,42.2
		c0,43.7-17,84.7-47.9,115.6c-30.9,30.9-71.9,47.9-115.6,47.9c-40.4,0-79.1-14.8-109.1-41.8c-2.4-2.1-6-1.9-8.2,0.4
		c-2.1,2.4-1.9,6,0.4,8.2c32.1,28.8,73.6,44.7,116.9,44.7c46.7,0,90.7-18.2,123.7-51.3c33.1-33,51.3-77,51.3-123.7
		C375,206.7,373,191.5,369.1,176.9z"/>
	<path class="st0" d="M46.1,277.2c-6.3-17.6-9.5-36.2-9.5-55.1c0-43.7,17-84.7,47.9-115.6c30.9-30.9,71.9-47.9,115.6-47.9
		c31.8,0,62.6,9.1,89.2,26.4c25.8,16.9,46.3,40.5,59.3,68.5c1.3,2.9,4.8,4.2,7.7,2.8c2.9-1.3,4.2-4.8,2.8-7.7
		c-13.8-29.9-35.8-55.2-63.4-73.3c-22.4-14.6-47.6-23.7-73.9-27c3.9-4.8,6.3-10.9,6.3-17.6c0-15.4-12.5-27.8-27.8-27.8
		s-27.8,12.5-27.8,27.8c0,6.7,2.4,12.8,6.3,17.6c-38.6,4.7-74.3,22-102.2,49.9c-33.1,33-51.3,77-51.3,123.7c0,20.3,3.4,40.1,10.2,59
		c6.5,18.3,16,35.2,28.2,50.4c1.1,1.4,2.8,2.2,4.5,2.2c1.3,0,2.5-0.4,3.6-1.3c2.5-2,2.9-5.6,0.9-8.1
		C61.1,310.1,52.2,294.3,46.1,277.2z M183.7,30.8c0-9,7.3-16.3,16.3-16.3c9,0,16.3,7.3,16.3,16.3c0,9-7.3,16.3-16.3,16.3
		C191,47.1,183.7,39.8,183.7,30.8z"/>
	<path class="st0" d="M200,76.6c-38.9,0-75.4,15.1-102.9,42.6c-27.5,27.5-42.6,64-42.6,102.9c0,38.9,15.1,75.4,42.6,102.9
		c27.5,27.5,64,42.6,102.8,42.6c0,0,0,0,0,0s0,0,0,0c38.8,0,75.4-15.1,102.8-42.6c27.5-27.5,42.6-64,42.6-102.9
		c0-38.9-15.1-75.4-42.6-102.9C275.4,91.7,238.9,76.6,200,76.6z M294.7,316.8c-7,7-14.6,13.1-22.8,18.3l-6.3-10.9
		c-1.6-2.8-5.1-3.7-7.9-2.1c-2.8,1.6-3.7,5.1-2.1,7.9l6.3,10.9c-17.2,9-36.3,14.1-56.2,15v-30.9c0-3.2-2.6-5.8-5.8-5.8
		c-3.2,0-5.8,2.6-5.8,5.8v30.9c-19.9-0.8-38.9-6-56.2-15l6.3-10.9c1.6-2.8,0.6-6.3-2.1-7.9c-2.8-1.6-6.3-0.6-7.9,2.1l-6.3,10.9
		c-8.1-5.2-15.8-11.3-22.8-18.3c-7-7-13.1-14.6-18.3-22.8l10.9-6.3c2.8-1.6,3.7-5.1,2.1-7.9c-1.6-2.8-5.1-3.7-7.9-2.1L81.2,284
		c-9-17.2-14.1-36.3-15-56.2h30.9c3.2,0,5.8-2.6,5.8-5.8c0-3.2-2.6-5.8-5.8-5.8H66.2c0.8-19.9,6-38.9,15-56.2l10.9,6.3
		c0.9,0.5,1.9,0.8,2.9,0.8c2,0,3.9-1,5-2.9c1.6-2.8,0.6-6.3-2.1-7.9L87,150.2c5.2-8.1,11.3-15.8,18.3-22.8c7-7,14.6-13.1,22.8-18.3
		l6.3,10.9c1.1,1.9,3,2.9,5,2.9c1,0,2-0.2,2.9-0.8c2.8-1.6,3.7-5.1,2.1-7.9l-6.3-10.9c17.2-9,36.3-14.1,56.2-15v30.9
		c0,3.2,2.6,5.8,5.8,5.8c3.2,0,5.8-2.6,5.8-5.8V88.3c19.9,0.8,38.9,6,56.2,15l-6.3,10.9c-1.6,2.8-0.6,6.3,2.1,7.9
		c0.9,0.5,1.9,0.8,2.9,0.8c2,0,3.9-1,5-2.9l6.3-10.9c8.1,5.2,15.8,11.3,22.8,18.3c7,7,13.1,14.6,18.3,22.8l-10.9,6.3
		c-2.8,1.6-3.7,5.1-2.1,7.9c1.1,1.9,3,2.9,5,2.9c1,0,2-0.2,2.9-0.8l10.9-6.3c9,17.2,14.1,36.3,15,56.2h-30.9c-3.2,0-5.8,2.6-5.8,5.8
		c0,3.2,2.6,5.8,5.8,5.8h30.9c-0.8,19.9-6,38.9-15,56.2l-10.9-6.3c-2.8-1.6-6.3-0.6-7.9,2.1c-1.6,2.8-0.6,6.3,2.1,7.9L313,294
		C307.8,302.1,301.7,309.8,294.7,316.8z"/>
	<path class="st0" d="M142.2,164.3c-1.7,1.7-2.2,4.2-1.2,6.4c1,2.3,24.7,56.5,39.3,71.1c14.6,14.6,68.8,38.3,71.1,39.3
		c2.2,0.9,4.7,0.5,6.4-1.2c1.7-1.7,2.2-4.2,1.2-6.4c-1-2.3-24.7-56.5-39.3-71.1c-14.6-14.6-68.8-38.3-71.1-39.3
		C146.4,162.1,143.9,162.6,142.2,164.3z M157.9,180c9.7,4.6,21.6,10.4,32,16.2c-3.5,1.4-6.8,3.4-9.6,6.2c-2.8,2.8-4.9,6.1-6.2,9.6
		C168.3,201.6,162.5,189.7,157.9,180z M242.1,264.2c-9.7-4.6-21.6-10.4-32-16.2c3.5-1.4,6.8-3.4,9.6-6.2c2.8-2.8,4.9-6.1,6.2-9.6
		C231.7,242.5,237.5,254.4,242.1,264.2z M211.5,233.6c-6.4,6.4-16.7,6.3-23,0c-6.4-6.4-6.4-16.7,0-23c6.4-6.4,16.7-6.4,23,0
		S217.9,227.2,211.5,233.6z"/>
</g>
</svg>
