<?xml version="1.0" encoding="utf-8"?>
<!-- Generator: Adobe Illustrator 26.4.1, SVG Export Plug-In . SVG Version: 6.00 Build 0)  -->
<svg version="1.1" id="Capa_1" xmlns="http://www.w3.org/2000/svg" xmlns:xlink="http://www.w3.org/1999/xlink" x="0px" y="0px"
	 viewBox="0 0 100 100" style="enable-background:new 0 0 100 100;" xml:space="preserve">
<style type="text/css">
	.st0{fill:#3C3C3B;}
</style>
<path class="st0" d="M92.56,95v-4.07h-3.35l0.04-72.46L94.22,5H5.78l5.01,13.7v72.23h-3.5V95H27v-4.11h46V95H92.56z M73,76.28H52.1
	v-6.47H73V76.28z M73,65.74h-8.41v-6.71h-4.07v6.71H52.1V45.51H73V65.74z M73,41.44h-8.41v-6.79h-4.07v6.79H52.1V20.25H73V41.44z
	 M22.94,16.18v74.75h-8.08V17.85l-3.24-8.79h76.77l-3.24,8.79v73.08h-8.08V16.18H22.94z M48.03,86.82H27v-6.47h21.03V86.82z
	 M48.03,76.28H27v-6.47h21.03V76.28z M48.03,65.74h-8.55v-6.71h-4.07v6.71H27V45.51h21.03V65.74z M48.03,41.44h-8.55v-6.79h-4.07
	v6.79H27V20.25h21.03V41.44z M52.1,86.82v-6.47H73v6.47H52.1z"/>
</svg>
