<?xml version="1.0" encoding="utf-8"?>
<!-- Generator: Adobe Illustrator 26.4.1, SVG Export Plug-In . SVG Version: 6.00 Build 0)  -->
<svg version="1.1" id="Capa_1" xmlns="http://www.w3.org/2000/svg" xmlns:xlink="http://www.w3.org/1999/xlink" x="0px" y="0px"
	 viewBox="0 0 100 100" style="enable-background:new 0 0 100 100;" xml:space="preserve">
<style type="text/css">
	.st0{fill:#3C3C3B;}
</style>
<path class="st0" d="M89.66,70.62v-5.89H95v-3.2c0-4.63-3.13-8.66-7.62-9.8l-0.49-0.12v-33c0-6.27-5.1-11.37-11.37-11.37
	c-3.01,0-5.84,1.16-7.97,3.27c-2.07,2.03-3.27,4.74-3.38,7.63l-0.02,0.45l-0.43,0.14c-2.31,0.75-4.2,2.54-5.05,4.78l-2.91,7.68
	h21.55l-3.91-8.26c-0.93-1.96-2.65-3.49-4.73-4.18l-0.48-0.16l0.04-0.5c0.27-3.81,3.48-6.8,7.3-6.8c4.04,0,7.32,3.28,7.32,7.32
	v32.82H43.54V5.13h-4.05v3.89h-7.44V5.13H28v3.89h-7.45V5.13H16.5v3.89H9.05V5.13H5v64c0,3.61,2.45,6.71,5.96,7.55l0.33,0.08
	l0.12,0.31c2.14,5.42,6.7,9.79,12.2,11.68l0.44,0.15v5.97h4.05v-5.16l0.68,0.02c0.23,0.01,0.46,0.02,0.69,0.02h41.05
	c0.23,0,0.46-0.01,0.69-0.02l0.68-0.02v5.16h4.05v-5.9l0.45-0.14C84.33,86.27,89.66,78.95,89.66,70.62z M69.74,24.65l1.18,2.48
	h-9.29l0.83-2.19c0.58-1.53,2.07-2.55,3.7-2.55C67.68,22.38,69.09,23.27,69.74,24.65z M43.54,55.46h41.35c2.69,0,5.08,1.8,5.83,4.39
	l0.24,0.83H43.54V55.46z M32.05,13.06h7.44v56.07c0,2.05-1.67,3.72-3.72,3.72c-2.05,0-3.72-1.67-3.72-3.72
	C32.05,69.13,32.05,13.06,32.05,13.06z M20.55,13.06h7.44v56.07c0,2.05-1.67,3.72-3.72,3.72s-3.72-1.67-3.72-3.72
	C20.55,69.13,20.55,13.06,20.55,13.06z M12.77,72.85c-2.05,0-3.72-1.67-3.72-3.72V13.06h7.44v56.07
	C16.49,71.18,14.82,72.85,12.77,72.85z M70.53,85.7H29.47c-3.21,0-6.48-1.17-9.18-3.31c-1.85-1.45-3.39-3.31-4.46-5.38l-0.31-0.59
	l0.6-0.29c0.71-0.34,1.36-0.79,1.95-1.34l0.44-0.42l0.44,0.42c1.45,1.36,3.33,2.1,5.31,2.1s3.86-0.75,5.31-2.1l0.44-0.42l0.44,0.42
	c1.45,1.36,3.33,2.1,5.3,2.1c4.29,0,7.77-3.49,7.77-7.77v-4.4h42.06v5.89C85.61,78.94,78.84,85.7,70.53,85.7z"/>
</svg>
